<svg width="467" height="332" viewBox="0 0 467 332" fill="none" xmlns="http://www.w3.org/2000/svg">
<g opacity="0.2" filter="url(#filter0_f_345_2129)">
<ellipse cx="233.809" cy="209.283" rx="143.244" ry="16.9555" fill="url(#paint0_linear_345_2129)"/>
</g>
<g opacity="0.5" filter="url(#filter1_f_345_2129)">
<path d="M335.188 216.212C335.188 217.856 288.687 223.674 228.383 223.674C168.078 223.674 119.192 222.341 119.192 220.698C45.9759 216.798 173.438 200.787 233.742 200.787C294.046 200.787 335.188 214.568 335.188 216.212Z" fill="url(#paint1_linear_345_2129)"/>
</g>
<g opacity="0.3" filter="url(#filter2_f_345_2129)">
<ellipse cx="213.062" cy="220.326" rx="129.062" ry="8.40734" fill="url(#paint2_linear_345_2129)"/>
</g>
<g opacity="0.3" filter="url(#filter3_f_345_2129)">
<ellipse cx="219.817" cy="220.765" rx="111.447" ry="3.37796" fill="url(#paint3_linear_345_2129)"/>
</g>
<g opacity="0.2" filter="url(#filter4_f_345_2129)">
<ellipse cx="270.929" cy="230.011" rx="73.4515" ry="12.2099" fill="url(#paint4_linear_345_2129)"/>
</g>
<g opacity="0.5" filter="url(#filter5_f_345_2129)">
<path d="M322.913 235.001C322.913 236.184 299.068 240.374 268.146 240.374C237.223 240.374 212.156 239.415 212.156 238.231C174.613 235.423 239.972 223.893 270.894 223.893C301.816 223.893 322.913 233.817 322.913 235.001Z" fill="url(#paint5_linear_345_2129)"/>
</g>
<g opacity="0.3" filter="url(#filter6_f_345_2129)">
<ellipse cx="260.291" cy="237.963" rx="66.1795" ry="6.05423" fill="url(#paint6_linear_345_2129)"/>
</g>
<g opacity="0.3" filter="url(#filter7_f_345_2129)">
<ellipse cx="263.755" cy="238.279" rx="57.1469" ry="2.43251" fill="url(#paint7_linear_345_2129)"/>
</g>
<path d="M275.058 79.8015C289.349 99.2256 282.414 133.535 249.624 156.857C217.324 179.831 182.973 175.025 168.404 155.223C153.299 134.693 159.122 97.8095 190.524 75.4747C221.933 53.1353 259.957 59.2767 275.058 79.8015Z" stroke="url(#paint8_linear_345_2129)" stroke-width="32.2644"/>
<path d="M279.635 57.9588C309.282 92.5031 301.625 134.272 260.382 167.182C217.917 197.968 171.853 190.541 147.64 160.261C123.428 129.981 132.308 79.6478 169.91 52.9033C207.512 26.1588 257.329 27.6402 279.635 57.9588Z" fill="url(#paint9_linear_345_2129)"/>
<path d="M264.759 64.6554C272.032 74.5405 273.763 87.5465 269.215 101.909C264.631 116.387 253.78 131.43 237.486 143.019C203.822 166.963 168.828 162.186 154.466 142.665C139.579 122.431 145.638 84.9285 178.4 61.6263C211.169 38.3194 249.876 44.4268 264.759 64.6554Z" stroke="url(#paint10_linear_345_2129)" stroke-width="32.2644"/>
<mask id="path-12-inside-1_345_2129" fill="white">
<ellipse cx="83.1298" cy="63.8903" rx="83.1298" ry="63.8903" transform="matrix(0.8149 -0.579602 0.592622 0.805481 100.976 96.9568)"/>
</mask>
<ellipse cx="83.1298" cy="63.8903" rx="83.1298" ry="63.8903" transform="matrix(0.8149 -0.579602 0.592622 0.805481 100.976 96.9568)" fill="#FFD93B"/>
<path d="M201.29 104.001C191.834 91.1489 193.911 79.3965 194.638 76.9731C195.331 74.6635 195.34 76.6583 191.331 79.5095L297.557 223.889C330.961 200.13 356.366 166.514 367.873 128.14C379.414 89.6522 377.724 41.3826 347.358 0.108912L201.29 104.001ZM191.331 79.5095C187.323 82.3606 185.399 81.7277 187.846 81.8037C190.415 81.8835 202.417 83.6215 211.873 96.4733L65.8048 200.365C96.1713 241.639 142.27 258.322 183.06 259.589C223.729 260.852 264.152 247.648 297.557 223.889L191.331 79.5095ZM211.873 96.4733C221.328 109.325 219.251 121.077 218.524 123.501C217.832 125.811 217.823 123.816 221.831 120.965L115.606 -23.4153C82.2012 0.343814 56.7966 33.9603 45.2898 72.3342C33.7487 110.822 35.4382 159.091 65.8048 200.365L211.873 96.4733ZM221.831 120.965C225.84 118.113 227.764 118.746 225.316 118.67C222.748 118.59 210.745 116.852 201.29 104.001L347.358 0.108912C316.991 -41.1648 270.893 -57.848 230.103 -59.115C189.433 -60.3782 149.01 -47.1745 115.606 -23.4153L221.831 120.965Z" fill="url(#paint11_linear_345_2129)" mask="url(#path-12-inside-1_345_2129)"/>
<path d="M253.767 66.7039C259.619 74.6589 260.744 85.6797 256.609 97.7619C252.481 109.825 243.244 122.317 229.611 132.013C215.978 141.71 201.021 146.426 188.076 146.506C175.111 146.587 164.817 142.088 158.964 134.133C153.111 126.178 151.987 115.157 156.122 103.075C160.25 91.011 169.487 78.5199 183.12 68.8233C196.753 59.1267 211.71 54.4103 224.655 54.3302C237.62 54.2499 247.914 58.7489 253.767 66.7039Z" stroke="url(#paint12_linear_345_2129)" stroke-width="14.3397"/>
<g filter="url(#filter8_d_345_2129)">
<g filter="url(#filter9_d_345_2129)">
<path d="M228.399 95.88L233.936 94.7778L229.253 107.909L224.57 121.04L218.696 123.09L220.412 118.278L228.399 95.88Z" fill="url(#paint13_linear_345_2129)"/>
<path d="M228.399 95.88L233.936 94.7778L242.419 88.9332C239.431 89.8191 236.516 89.847 236.516 89.847L228.399 95.88Z" fill="url(#paint14_linear_345_2129)"/>
<path d="M218.696 123.09L220.412 118.278L195.871 127.071L194.096 132.048L218.696 123.09Z" fill="url(#paint15_linear_345_2129)"/>
</g>
<g filter="url(#filter10_d_345_2129)">
<path d="M187.093 92.0767L182.952 88.9747L173.19 116.349L177.153 119.435L178.869 114.624L187.093 92.0767Z" fill="url(#paint16_linear_345_2129)"/>
<path d="M187.093 92.0767L182.952 88.9747L194.961 84.7267L196.941 86.2697L198.92 87.8127L187.093 92.0767Z" fill="url(#paint17_linear_345_2129)"/>
<path d="M177.153 119.435L178.869 114.624L195.871 127.07L194.096 132.047L177.153 119.435Z" fill="url(#paint18_linear_345_2129)"/>
</g>
<path d="M211.555 81.8389C212.995 80.4699 215.198 80.1833 216.472 81.1992L218.78 83.0394L213.562 87.9994L211.254 86.1591C209.98 85.1433 210.115 83.2078 211.555 81.8389Z" fill="url(#paint19_linear_345_2129)"/>
<path d="M215.585 89.4871L218.487 90.6332C220.089 91.2658 220.513 93.0579 219.433 94.6333C218.354 96.2088 216.177 96.974 214.575 96.3414L211.673 95.1953L215.585 89.4871Z" fill="url(#paint20_linear_345_2129)"/>
<path d="M228.565 80.8355C227.711 82.4813 225.608 83.4877 223.87 83.0818C222.132 82.6759 221.414 81.0107 222.267 79.3649C223.12 77.7191 225.224 76.7127 226.962 77.1186C228.7 77.5245 229.418 79.1896 228.565 80.8355Z" fill="url(#paint21_linear_345_2129)"/>
<path d="M201.302 98.9643C202.155 97.3184 204.258 96.3121 205.996 96.718L209.145 97.4533L206.053 103.416L202.904 102.681C201.166 102.275 200.448 100.61 201.302 98.9643Z" fill="url(#paint22_linear_345_2129)"/>
<path d="M203.337 113.195C205.075 113.601 207.178 112.595 208.032 110.949L209.578 107.968L206.429 107.232C204.691 106.826 202.588 107.833 201.734 109.479C200.881 111.124 201.599 112.79 203.337 113.195Z" fill="url(#paint23_linear_345_2129)"/>
</g>
<g filter="url(#filter11_f_345_2129)">
<path d="M287.183 95.9701L297.685 112.425C300.938 93.6231 293.824 78.5744 291.028 74.3996C288.815 70.3213 284.71 64.5927 279.875 58.3071C267.043 38.5824 239.993 20.99 197.945 34.1266C147.934 51.0373 131.357 90.8865 129.579 108.483L282.908 94.0435L287.183 95.9701Z" fill="url(#paint24_linear_345_2129)" fill-opacity="0.3"/>
</g>
<path d="M304.989 150.913C312.516 161.144 310.002 181.865 288.563 197.114C267.613 212.015 247.406 207.727 239.601 197.118C231.26 185.781 233.691 163.322 253.742 149.06C273.801 134.793 296.651 139.581 304.989 150.913Z" stroke="url(#paint25_linear_345_2129)" stroke-width="32.2644"/>
<path d="M312.226 132.948C332.67 156.769 327.39 185.573 298.949 208.267C269.665 229.498 237.899 224.376 221.202 203.495C204.506 182.614 210.629 147.904 236.56 129.461C262.49 111.018 296.843 112.04 312.226 132.948Z" fill="url(#paint26_linear_345_2129)"/>
<path d="M297.886 140.468C301.777 145.757 302.988 153.021 300.223 161.755C297.421 170.603 290.655 180.13 280.192 187.571C258.189 203.221 237.588 198.787 229.99 188.459C221.866 177.418 224.281 154.518 245.382 139.51C266.489 124.498 289.767 129.432 297.886 140.468Z" stroke="url(#paint27_linear_345_2129)" stroke-width="32.2644"/>
<mask id="path-26-inside-2_345_2129" fill="white">
<ellipse cx="57.326" cy="44.0585" rx="57.326" ry="44.0585" transform="matrix(0.8149 -0.579602 0.592622 0.805481 189.023 159.84)"/>
</mask>
<ellipse cx="57.326" cy="44.0585" rx="57.326" ry="44.0585" transform="matrix(0.8149 -0.579602 0.592622 0.805481 189.023 159.84)" fill="#FFD93B"/>
<path d="M235.529 180.822C222.828 163.559 224.321 146.139 226.726 138.119C229.097 130.212 233.047 126.68 234.845 125.401L341.071 269.781C368.669 250.152 390.132 222.062 399.96 189.285C409.823 156.395 408.718 113.793 381.597 76.9303L235.529 180.822ZM234.845 125.401C236.643 124.122 241.291 121.538 249.671 121.798C258.172 122.062 275.466 126.12 288.167 143.383L142.099 247.275C169.22 284.137 210.027 298.501 244.885 299.584C279.622 300.663 313.473 289.41 341.071 269.781L234.845 125.401ZM288.167 143.383C300.868 160.646 299.375 178.066 296.97 186.086C294.599 193.993 290.649 197.525 288.851 198.804L182.625 54.4242C155.027 74.0534 133.564 102.143 123.736 134.92C113.873 167.81 114.978 210.412 142.099 247.275L288.167 143.383ZM288.851 198.804C287.053 200.083 282.404 202.667 274.025 202.407C265.524 202.143 248.23 198.085 235.529 180.822L381.597 76.9303C354.476 40.0677 313.669 25.704 278.811 24.6213C244.074 23.5423 210.223 34.795 182.625 54.4242L288.851 198.804Z" fill="url(#paint28_linear_345_2129)" mask="url(#path-26-inside-2_345_2129)"/>
<path d="M292.573 140.268C296.069 145.02 296.91 151.825 294.221 159.681C291.539 167.518 285.479 175.772 276.41 182.223C267.341 188.673 257.471 191.749 249.061 191.801C240.631 191.853 234.321 188.939 230.825 184.187C227.329 179.435 226.488 172.63 229.177 164.774C231.859 156.937 237.919 148.683 246.988 142.232C256.057 135.782 265.927 132.706 274.337 132.654C282.767 132.602 289.077 135.516 292.573 140.268Z" stroke="url(#paint29_linear_345_2129)" stroke-width="14.3397"/>
<g filter="url(#filter12_d_345_2129)">
<g filter="url(#filter13_d_345_2129)">
<path d="M276.893 159.098L280.711 158.338L277.482 167.393L274.252 176.448L270.201 177.862L271.385 174.544L276.893 159.098Z" fill="url(#paint30_linear_345_2129)"/>
<path d="M276.893 159.098L280.711 158.338L286.561 154.307C284.5 154.918 282.49 154.938 282.49 154.938L276.893 159.098Z" fill="url(#paint31_linear_345_2129)"/>
<path d="M270.201 177.862L271.385 174.544L254.462 180.607L253.238 184.04L270.201 177.862Z" fill="url(#paint32_linear_345_2129)"/>
</g>
<g filter="url(#filter14_d_345_2129)">
<path d="M248.408 156.475L245.553 154.336L238.821 173.213L241.553 175.341L242.737 172.023L248.408 156.475Z" fill="url(#paint33_linear_345_2129)"/>
<path d="M248.408 156.475L245.553 154.336L253.834 151.407L255.199 152.471L256.564 153.535L248.408 156.475Z" fill="url(#paint34_linear_345_2129)"/>
<path d="M241.553 175.341L242.737 172.023L254.462 180.607L253.238 184.039L241.553 175.341Z" fill="url(#paint35_linear_345_2129)"/>
</g>
<path d="M265.277 149.415C266.27 148.471 267.789 148.274 268.668 148.974L270.26 150.243L266.662 153.663L265.07 152.394C264.191 151.694 264.284 150.359 265.277 149.415Z" fill="url(#paint36_linear_345_2129)"/>
<path d="M268.056 154.689L270.058 155.48C271.162 155.916 271.455 157.152 270.71 158.238C269.965 159.325 268.465 159.852 267.36 159.416L265.358 158.626L268.056 154.689Z" fill="url(#paint37_linear_345_2129)"/>
<path d="M277.007 148.723C276.418 149.858 274.968 150.552 273.769 150.272C272.571 149.992 272.075 148.844 272.664 147.709C273.252 146.574 274.703 145.88 275.901 146.16C277.1 146.44 277.595 147.588 277.007 148.723Z" fill="url(#paint38_linear_345_2129)"/>
<path d="M258.207 161.225C258.795 160.09 260.246 159.396 261.444 159.676L263.616 160.183L261.483 164.295L259.312 163.788C258.113 163.508 257.618 162.36 258.207 161.225Z" fill="url(#paint39_linear_345_2129)"/>
<path d="M259.61 171.039C260.809 171.319 262.259 170.625 262.847 169.49L263.914 167.433L261.742 166.926C260.544 166.647 259.093 167.341 258.505 168.475C257.916 169.61 258.411 170.759 259.61 171.039Z" fill="url(#paint40_linear_345_2129)"/>
</g>
<g filter="url(#filter15_f_345_2129)">
<path d="M317.431 159.16L324.673 170.507C326.917 157.542 322.011 147.164 320.083 144.285C318.557 141.473 315.726 137.522 312.392 133.188C303.543 119.586 284.889 107.454 255.893 116.513C221.406 128.175 209.974 155.654 208.748 167.789L314.483 157.831L317.431 159.16Z" fill="url(#paint41_linear_345_2129)" fill-opacity="0.3"/>
</g>
<defs>
<filter id="filter0_f_345_2129" x="0.941551" y="102.704" width="465.735" height="213.158" filterUnits="userSpaceOnUse" color-interpolation-filters="sRGB">
<feFlood flood-opacity="0" result="BackgroundImageFix"/>
<feBlend mode="normal" in="SourceGraphic" in2="BackgroundImageFix" result="shape"/>
<feGaussianBlur stdDeviation="44.8117" result="effect1_foregroundBlur_345_2129"/>
</filter>
<filter id="filter1_f_345_2129" x="43.3583" y="147.013" width="345.604" height="130.435" filterUnits="userSpaceOnUse" color-interpolation-filters="sRGB">
<feFlood flood-opacity="0" result="BackgroundImageFix"/>
<feBlend mode="normal" in="SourceGraphic" in2="BackgroundImageFix" result="shape"/>
<feGaussianBlur stdDeviation="26.887" result="effect1_foregroundBlur_345_2129"/>
</filter>
<filter id="filter2_f_345_2129" x="66.0753" y="193.994" width="293.974" height="52.6641" filterUnits="userSpaceOnUse" color-interpolation-filters="sRGB">
<feFlood flood-opacity="0" result="BackgroundImageFix"/>
<feBlend mode="normal" in="SourceGraphic" in2="BackgroundImageFix" result="shape"/>
<feGaussianBlur stdDeviation="8.96234" result="effect1_foregroundBlur_345_2129"/>
</filter>
<filter id="filter3_f_345_2129" x="97.6153" y="206.632" width="244.404" height="28.2655" filterUnits="userSpaceOnUse" color-interpolation-filters="sRGB">
<feFlood flood-opacity="0" result="BackgroundImageFix"/>
<feBlend mode="normal" in="SourceGraphic" in2="BackgroundImageFix" result="shape"/>
<feGaussianBlur stdDeviation="5.3774" result="effect1_foregroundBlur_345_2129"/>
</filter>
<filter id="filter4_f_345_2129" x="107.854" y="128.178" width="326.15" height="203.666" filterUnits="userSpaceOnUse" color-interpolation-filters="sRGB">
<feFlood flood-opacity="0" result="BackgroundImageFix"/>
<feBlend mode="normal" in="SourceGraphic" in2="BackgroundImageFix" result="shape"/>
<feGaussianBlur stdDeviation="44.8117" result="effect1_foregroundBlur_345_2129"/>
</filter>
<filter id="filter5_f_345_2129" x="147.07" y="170.119" width="229.616" height="124.029" filterUnits="userSpaceOnUse" color-interpolation-filters="sRGB">
<feFlood flood-opacity="0" result="BackgroundImageFix"/>
<feBlend mode="normal" in="SourceGraphic" in2="BackgroundImageFix" result="shape"/>
<feGaussianBlur stdDeviation="26.887" result="effect1_foregroundBlur_345_2129"/>
</filter>
<filter id="filter6_f_345_2129" x="176.187" y="213.984" width="168.208" height="47.9578" filterUnits="userSpaceOnUse" color-interpolation-filters="sRGB">
<feFlood flood-opacity="0" result="BackgroundImageFix"/>
<feBlend mode="normal" in="SourceGraphic" in2="BackgroundImageFix" result="shape"/>
<feGaussianBlur stdDeviation="8.96234" result="effect1_foregroundBlur_345_2129"/>
</filter>
<filter id="filter7_f_345_2129" x="195.853" y="225.092" width="135.804" height="26.3747" filterUnits="userSpaceOnUse" color-interpolation-filters="sRGB">
<feFlood flood-opacity="0" result="BackgroundImageFix"/>
<feBlend mode="normal" in="SourceGraphic" in2="BackgroundImageFix" result="shape"/>
<feGaussianBlur stdDeviation="5.3774" result="effect1_foregroundBlur_345_2129"/>
</filter>
<filter id="filter8_d_345_2129" x="173.19" y="77.0287" width="69.2285" height="58.6046" filterUnits="userSpaceOnUse" color-interpolation-filters="sRGB">
<feFlood flood-opacity="0" result="BackgroundImageFix"/>
<feColorMatrix in="SourceAlpha" type="matrix" values="0 0 0 0 0 0 0 0 0 0 0 0 0 0 0 0 0 0 127 0" result="hardAlpha"/>
<feOffset dy="3.58494"/>
<feComposite in2="hardAlpha" operator="out"/>
<feColorMatrix type="matrix" values="0 0 0 0 1 0 0 0 0 0.937917 0 0 0 0 0.379167 0 0 0 1 0"/>
<feBlend mode="normal" in2="BackgroundImageFix" result="effect1_dropShadow_345_2129"/>
<feBlend mode="normal" in="SourceGraphic" in2="effect1_dropShadow_345_2129" result="shape"/>
</filter>
<filter id="filter9_d_345_2129" x="192.682" y="88.9332" width="51.1504" height="45.9433" filterUnits="userSpaceOnUse" color-interpolation-filters="sRGB">
<feFlood flood-opacity="0" result="BackgroundImageFix"/>
<feColorMatrix in="SourceAlpha" type="matrix" values="0 0 0 0 0 0 0 0 0 0 0 0 0 0 0 0 0 0 127 0" result="hardAlpha"/>
<feOffset dy="1.41408"/>
<feGaussianBlur stdDeviation="0.70704"/>
<feComposite in2="hardAlpha" operator="out"/>
<feColorMatrix type="matrix" values="0 0 0 0 0 0 0 0 0 0 0 0 0 0 0 0 0 0 0.1 0"/>
<feBlend mode="normal" in2="BackgroundImageFix" result="effect1_dropShadow_345_2129"/>
<feBlend mode="normal" in="SourceGraphic" in2="effect1_dropShadow_345_2129" result="shape"/>
</filter>
<filter id="filter10_d_345_2129" x="171.776" y="84.7267" width="28.5586" height="50.1487" filterUnits="userSpaceOnUse" color-interpolation-filters="sRGB">
<feFlood flood-opacity="0" result="BackgroundImageFix"/>
<feColorMatrix in="SourceAlpha" type="matrix" values="0 0 0 0 0 0 0 0 0 0 0 0 0 0 0 0 0 0 127 0" result="hardAlpha"/>
<feOffset dy="1.41408"/>
<feGaussianBlur stdDeviation="0.70704"/>
<feComposite in2="hardAlpha" operator="out"/>
<feColorMatrix type="matrix" values="0 0 0 0 0 0 0 0 0 0 0 0 0 0 0 0 0 0 0.1 0"/>
<feBlend mode="normal" in2="BackgroundImageFix" result="effect1_dropShadow_345_2129"/>
<feBlend mode="normal" in="SourceGraphic" in2="effect1_dropShadow_345_2129" result="shape"/>
</filter>
<filter id="filter11_f_345_2129" x="123.579" y="23.5829" width="180.94" height="94.8418" filterUnits="userSpaceOnUse" color-interpolation-filters="sRGB">
<feFlood flood-opacity="0" result="BackgroundImageFix"/>
<feBlend mode="normal" in="SourceGraphic" in2="BackgroundImageFix" result="shape"/>
<feGaussianBlur stdDeviation="3" result="effect1_foregroundBlur_345_2129"/>
</filter>
<filter id="filter12_d_345_2129" x="238.821" y="146.098" width="47.7397" height="41.5263" filterUnits="userSpaceOnUse" color-interpolation-filters="sRGB">
<feFlood flood-opacity="0" result="BackgroundImageFix"/>
<feColorMatrix in="SourceAlpha" type="matrix" values="0 0 0 0 0 0 0 0 0 0 0 0 0 0 0 0 0 0 127 0" result="hardAlpha"/>
<feOffset dy="3.58494"/>
<feComposite in2="hardAlpha" operator="out"/>
<feColorMatrix type="matrix" values="0 0 0 0 1 0 0 0 0 0.937917 0 0 0 0 0.379167 0 0 0 1 0"/>
<feBlend mode="normal" in2="BackgroundImageFix" result="effect1_dropShadow_345_2129"/>
<feBlend mode="normal" in="SourceGraphic" in2="effect1_dropShadow_345_2129" result="shape"/>
</filter>
<filter id="filter13_d_345_2129" x="251.824" y="154.307" width="36.1509" height="32.5602" filterUnits="userSpaceOnUse" color-interpolation-filters="sRGB">
<feFlood flood-opacity="0" result="BackgroundImageFix"/>
<feColorMatrix in="SourceAlpha" type="matrix" values="0 0 0 0 0 0 0 0 0 0 0 0 0 0 0 0 0 0 127 0" result="hardAlpha"/>
<feOffset dy="1.41408"/>
<feGaussianBlur stdDeviation="0.70704"/>
<feComposite in2="hardAlpha" operator="out"/>
<feColorMatrix type="matrix" values="0 0 0 0 0 0 0 0 0 0 0 0 0 0 0 0 0 0 0.1 0"/>
<feBlend mode="normal" in2="BackgroundImageFix" result="effect1_dropShadow_345_2129"/>
<feBlend mode="normal" in="SourceGraphic" in2="effect1_dropShadow_345_2129" result="shape"/>
</filter>
<filter id="filter14_d_345_2129" x="237.407" y="151.407" width="20.5713" height="35.4603" filterUnits="userSpaceOnUse" color-interpolation-filters="sRGB">
<feFlood flood-opacity="0" result="BackgroundImageFix"/>
<feColorMatrix in="SourceAlpha" type="matrix" values="0 0 0 0 0 0 0 0 0 0 0 0 0 0 0 0 0 0 127 0" result="hardAlpha"/>
<feOffset dy="1.41408"/>
<feGaussianBlur stdDeviation="0.70704"/>
<feComposite in2="hardAlpha" operator="out"/>
<feColorMatrix type="matrix" values="0 0 0 0 0 0 0 0 0 0 0 0 0 0 0 0 0 0 0.1 0"/>
<feBlend mode="normal" in2="BackgroundImageFix" result="effect1_dropShadow_345_2129"/>
<feBlend mode="normal" in="SourceGraphic" in2="effect1_dropShadow_345_2129" result="shape"/>
</filter>
<filter id="filter15_f_345_2129" x="202.748" y="107.38" width="128.501" height="69.1274" filterUnits="userSpaceOnUse" color-interpolation-filters="sRGB">
<feFlood flood-opacity="0" result="BackgroundImageFix"/>
<feBlend mode="normal" in="SourceGraphic" in2="BackgroundImageFix" result="shape"/>
<feGaussianBlur stdDeviation="3" result="effect1_foregroundBlur_345_2129"/>
</filter>
<linearGradient id="paint0_linear_345_2129" x1="233.809" y1="188.162" x2="233.809" y2="226.238" gradientUnits="userSpaceOnUse">
<stop stop-color="#CB9355" stop-opacity="0"/>
<stop offset="1" stop-color="#AC7D4B"/>
</linearGradient>
<linearGradient id="paint1_linear_345_2129" x1="233.088" y1="196.007" x2="232.909" y2="223.703" gradientUnits="userSpaceOnUse">
<stop stop-color="#AC7D4B" stop-opacity="0.27"/>
<stop offset="0.919275" stop-color="#81674C" stop-opacity="0"/>
</linearGradient>
<linearGradient id="paint2_linear_345_2129" x1="331.394" y1="228.733" x2="84" y2="228.732" gradientUnits="userSpaceOnUse">
<stop stop-color="#CB9355" stop-opacity="0"/>
<stop offset="0.50698" stop-color="#9E8137"/>
<stop offset="1" stop-color="#856139" stop-opacity="0"/>
</linearGradient>
<linearGradient id="paint3_linear_345_2129" x1="321.998" y1="224.143" x2="108.37" y2="224.14" gradientUnits="userSpaceOnUse">
<stop stop-color="#95813A" stop-opacity="0"/>
<stop offset="0.50698" stop-color="#7D6922"/>
<stop offset="1" stop-color="#856139" stop-opacity="0"/>
</linearGradient>
<linearGradient id="paint4_linear_345_2129" x1="270.929" y1="214.802" x2="270.929" y2="242.221" gradientUnits="userSpaceOnUse">
<stop stop-color="#CB9355" stop-opacity="0"/>
<stop offset="1" stop-color="#AC7D4B"/>
</linearGradient>
<linearGradient id="paint5_linear_345_2129" x1="270.558" y1="220.451" x2="270.378" y2="240.394" gradientUnits="userSpaceOnUse">
<stop stop-color="#AC7D4B" stop-opacity="0.27"/>
<stop offset="0.919275" stop-color="#81674C" stop-opacity="0"/>
</linearGradient>
<linearGradient id="paint6_linear_345_2129" x1="320.968" y1="244.017" x2="194.111" y2="244.017" gradientUnits="userSpaceOnUse">
<stop stop-color="#CB9355" stop-opacity="0"/>
<stop offset="0.50698" stop-color="#9E8137"/>
<stop offset="1" stop-color="#856139" stop-opacity="0"/>
</linearGradient>
<linearGradient id="paint7_linear_345_2129" x1="316.15" y1="240.712" x2="206.608" y2="240.711" gradientUnits="userSpaceOnUse">
<stop stop-color="#95813A" stop-opacity="0"/>
<stop offset="0.50698" stop-color="#7D6922"/>
<stop offset="1" stop-color="#856139" stop-opacity="0"/>
</linearGradient>
<linearGradient id="paint8_linear_345_2129" x1="284.066" y1="64.7519" x2="176.311" y2="187.952" gradientUnits="userSpaceOnUse">
<stop stop-color="#FDF8CE"/>
<stop offset="0.0550575" stop-color="#F2E158"/>
<stop offset="0.170676" stop-color="#FCF5AF"/>
<stop offset="0.309086" stop-color="#ECD42F"/>
<stop offset="0.491314" stop-color="#E9B00C"/>
<stop offset="0.704021" stop-color="#ECB600"/>
<stop offset="0.78935" stop-color="#E8CF29"/>
<stop offset="0.843399" stop-color="#EBD431"/>
<stop offset="0.909367" stop-color="#E2C317"/>
<stop offset="1" stop-color="#E9D14F"/>
</linearGradient>
<linearGradient id="paint9_linear_345_2129" x1="282.179" y1="65.5416" x2="162.839" y2="188.111" gradientUnits="userSpaceOnUse">
<stop stop-color="#EEBB5C"/>
<stop offset="0.0550575" stop-color="#FDEE48"/>
<stop offset="0.170676" stop-color="#E8BB06"/>
<stop offset="0.309086" stop-color="#D57B01"/>
<stop offset="0.491314" stop-color="#C86101"/>
<stop offset="0.660555" stop-color="#D88C2D"/>
<stop offset="0.771761" stop-color="#E8BE29"/>
<stop offset="0.815114" stop-color="#E8BE29"/>
<stop offset="0.881945" stop-color="#E8AE0E"/>
<stop offset="0.930202" stop-color="#D98317"/>
<stop offset="1" stop-color="#EBAE4E"/>
</linearGradient>
<linearGradient id="paint10_linear_345_2129" x1="273.767" y1="49.6051" x2="163.942" y2="176.642" gradientUnits="userSpaceOnUse">
<stop stop-color="#FDF8CE"/>
<stop offset="0.0550575" stop-color="#F2E158"/>
<stop offset="0.170676" stop-color="#FCF5AF"/>
<stop offset="0.309086" stop-color="#ECD42F"/>
<stop offset="0.491314" stop-color="#E9B00C"/>
<stop offset="0.704021" stop-color="#ECB600"/>
<stop offset="0.78935" stop-color="#E8CF29"/>
<stop offset="0.843399" stop-color="#EBD431"/>
<stop offset="0.909367" stop-color="#E2C317"/>
<stop offset="1" stop-color="#E9D14F"/>
</linearGradient>
<linearGradient id="paint11_linear_345_2129" x1="238.121" y1="28.756" x2="185.262" y2="172.495" gradientUnits="userSpaceOnUse">
<stop stop-color="#FFDC5E"/>
<stop offset="0.417119" stop-color="#FFED97"/>
<stop offset="1" stop-color="#FFF27B"/>
</linearGradient>
<linearGradient id="paint12_linear_345_2129" x1="179.59" y1="60.1663" x2="236.956" y2="137.448" gradientUnits="userSpaceOnUse">
<stop stop-color="#E4991A"/>
<stop offset="0.474971" stop-color="#EAAA2E" stop-opacity="0"/>
<stop offset="1" stop-color="#FFF27B" stop-opacity="0"/>
</linearGradient>
<linearGradient id="paint13_linear_345_2129" x1="226.446" y1="87.5282" x2="222.312" y2="134.53" gradientUnits="userSpaceOnUse">
<stop stop-color="#E19D37"/>
<stop offset="0.494792" stop-color="#EEA230"/>
<stop offset="1" stop-color="#DB9224"/>
</linearGradient>
<linearGradient id="paint14_linear_345_2129" x1="226.446" y1="87.5282" x2="222.312" y2="134.53" gradientUnits="userSpaceOnUse">
<stop stop-color="#E19D37"/>
<stop offset="0.494792" stop-color="#EEA230"/>
<stop offset="1" stop-color="#DB9224"/>
</linearGradient>
<linearGradient id="paint15_linear_345_2129" x1="226.446" y1="87.5282" x2="222.312" y2="134.53" gradientUnits="userSpaceOnUse">
<stop stop-color="#E19D37"/>
<stop offset="0.494792" stop-color="#EEA230"/>
<stop offset="1" stop-color="#DB9224"/>
</linearGradient>
<linearGradient id="paint16_linear_345_2129" x1="197.636" y1="84.962" x2="193.498" y2="131.995" gradientUnits="userSpaceOnUse">
<stop stop-color="#E19D37"/>
<stop offset="0.494792" stop-color="#EEA230"/>
<stop offset="1" stop-color="#DB9224"/>
</linearGradient>
<linearGradient id="paint17_linear_345_2129" x1="197.636" y1="84.962" x2="193.498" y2="131.995" gradientUnits="userSpaceOnUse">
<stop stop-color="#E19D37"/>
<stop offset="0.494792" stop-color="#EEA230"/>
<stop offset="1" stop-color="#DB9224"/>
</linearGradient>
<linearGradient id="paint18_linear_345_2129" x1="197.636" y1="84.962" x2="193.498" y2="131.995" gradientUnits="userSpaceOnUse">
<stop stop-color="#E19D37"/>
<stop offset="0.494792" stop-color="#EEA230"/>
<stop offset="1" stop-color="#DB9224"/>
</linearGradient>
<linearGradient id="paint19_linear_345_2129" x1="216.472" y1="81.1992" x2="212.026" y2="86.7748" gradientUnits="userSpaceOnUse">
<stop stop-color="#E19D37"/>
<stop offset="0.494792" stop-color="#EEA230"/>
<stop offset="1" stop-color="#DB9224"/>
</linearGradient>
<linearGradient id="paint20_linear_345_2129" x1="218.487" y1="90.6332" x2="216.009" y2="96.9077" gradientUnits="userSpaceOnUse">
<stop stop-color="#E19D37"/>
<stop offset="0.494792" stop-color="#EEA230"/>
<stop offset="1" stop-color="#DB9224"/>
</linearGradient>
<linearGradient id="paint21_linear_345_2129" x1="226.962" y1="77.1186" x2="225.481" y2="83.4581" gradientUnits="userSpaceOnUse">
<stop stop-color="#E19D37"/>
<stop offset="0.494792" stop-color="#EEA230"/>
<stop offset="1" stop-color="#DB9224"/>
</linearGradient>
<linearGradient id="paint22_linear_345_2129" x1="205.996" y1="96.718" x2="204.516" y2="103.057" gradientUnits="userSpaceOnUse">
<stop stop-color="#E19D37"/>
<stop offset="0.494792" stop-color="#EEA230"/>
<stop offset="1" stop-color="#DB9224"/>
</linearGradient>
<linearGradient id="paint23_linear_345_2129" x1="206.429" y1="107.232" x2="204.949" y2="113.572" gradientUnits="userSpaceOnUse">
<stop stop-color="#E19D37"/>
<stop offset="0.494792" stop-color="#EEA230"/>
<stop offset="1" stop-color="#DB9224"/>
</linearGradient>
<linearGradient id="paint24_linear_345_2129" x1="185.453" y1="102.003" x2="183.287" y2="23.4419" gradientUnits="userSpaceOnUse">
<stop stop-color="white"/>
<stop offset="0.105858" stop-color="white"/>
<stop offset="0.21696" stop-color="white" stop-opacity="0.961194"/>
<stop offset="1" stop-color="white" stop-opacity="0"/>
</linearGradient>
<linearGradient id="paint25_linear_345_2129" x1="315.281" y1="137.632" x2="240.974" y2="222.591" gradientUnits="userSpaceOnUse">
<stop stop-color="#FDF8CE"/>
<stop offset="0.0550575" stop-color="#F2E158"/>
<stop offset="0.170676" stop-color="#FCF5AF"/>
<stop offset="0.309086" stop-color="#ECD42F"/>
<stop offset="0.491314" stop-color="#E9B00C"/>
<stop offset="0.704021" stop-color="#ECB600"/>
<stop offset="0.78935" stop-color="#E8CF29"/>
<stop offset="0.843399" stop-color="#EBD431"/>
<stop offset="0.909367" stop-color="#E2C317"/>
<stop offset="1" stop-color="#E9D14F"/>
</linearGradient>
<linearGradient id="paint26_linear_345_2129" x1="313.98" y1="138.177" x2="231.684" y2="222.7" gradientUnits="userSpaceOnUse">
<stop stop-color="#EEBB5C"/>
<stop offset="0.0550575" stop-color="#FDEE48"/>
<stop offset="0.170676" stop-color="#E8BB06"/>
<stop offset="0.309086" stop-color="#D57B01"/>
<stop offset="0.491314" stop-color="#C86101"/>
<stop offset="0.660555" stop-color="#D88C2D"/>
<stop offset="0.771761" stop-color="#E8BE29"/>
<stop offset="0.815114" stop-color="#E8BE29"/>
<stop offset="0.881945" stop-color="#E8AE0E"/>
<stop offset="0.930202" stop-color="#D98317"/>
<stop offset="1" stop-color="#EBAE4E"/>
</linearGradient>
<linearGradient id="paint27_linear_345_2129" x1="308.179" y1="127.187" x2="232.444" y2="214.791" gradientUnits="userSpaceOnUse">
<stop stop-color="#FDF8CE"/>
<stop offset="0.0550575" stop-color="#F2E158"/>
<stop offset="0.170676" stop-color="#FCF5AF"/>
<stop offset="0.309086" stop-color="#ECD42F"/>
<stop offset="0.491314" stop-color="#E9B00C"/>
<stop offset="0.704021" stop-color="#ECB600"/>
<stop offset="0.78935" stop-color="#E8CF29"/>
<stop offset="0.843399" stop-color="#EBD431"/>
<stop offset="0.909367" stop-color="#E2C317"/>
<stop offset="1" stop-color="#E9D14F"/>
</linearGradient>
<linearGradient id="paint28_linear_345_2129" x1="283.598" y1="112.809" x2="247.146" y2="211.932" gradientUnits="userSpaceOnUse">
<stop stop-color="#FFDC5E"/>
<stop offset="0.417119" stop-color="#FFED97"/>
<stop offset="1" stop-color="#FFF27B"/>
</linearGradient>
<linearGradient id="paint29_linear_345_2129" x1="243.235" y1="134.47" x2="282.794" y2="187.763" gradientUnits="userSpaceOnUse">
<stop stop-color="#E4991A"/>
<stop offset="0.474971" stop-color="#EAAA2E" stop-opacity="0"/>
<stop offset="1" stop-color="#FFF27B" stop-opacity="0"/>
</linearGradient>
<linearGradient id="paint30_linear_345_2129" x1="275.546" y1="153.339" x2="272.695" y2="185.751" gradientUnits="userSpaceOnUse">
<stop stop-color="#E19D37"/>
<stop offset="0.494792" stop-color="#EEA230"/>
<stop offset="1" stop-color="#DB9224"/>
</linearGradient>
<linearGradient id="paint31_linear_345_2129" x1="275.546" y1="153.339" x2="272.695" y2="185.751" gradientUnits="userSpaceOnUse">
<stop stop-color="#E19D37"/>
<stop offset="0.494792" stop-color="#EEA230"/>
<stop offset="1" stop-color="#DB9224"/>
</linearGradient>
<linearGradient id="paint32_linear_345_2129" x1="275.546" y1="153.339" x2="272.695" y2="185.751" gradientUnits="userSpaceOnUse">
<stop stop-color="#E19D37"/>
<stop offset="0.494792" stop-color="#EEA230"/>
<stop offset="1" stop-color="#DB9224"/>
</linearGradient>
<linearGradient id="paint33_linear_345_2129" x1="255.678" y1="151.569" x2="252.825" y2="184.002" gradientUnits="userSpaceOnUse">
<stop stop-color="#E19D37"/>
<stop offset="0.494792" stop-color="#EEA230"/>
<stop offset="1" stop-color="#DB9224"/>
</linearGradient>
<linearGradient id="paint34_linear_345_2129" x1="255.678" y1="151.569" x2="252.825" y2="184.002" gradientUnits="userSpaceOnUse">
<stop stop-color="#E19D37"/>
<stop offset="0.494792" stop-color="#EEA230"/>
<stop offset="1" stop-color="#DB9224"/>
</linearGradient>
<linearGradient id="paint35_linear_345_2129" x1="255.678" y1="151.569" x2="252.825" y2="184.002" gradientUnits="userSpaceOnUse">
<stop stop-color="#E19D37"/>
<stop offset="0.494792" stop-color="#EEA230"/>
<stop offset="1" stop-color="#DB9224"/>
</linearGradient>
<linearGradient id="paint36_linear_345_2129" x1="268.668" y1="148.974" x2="265.602" y2="152.819" gradientUnits="userSpaceOnUse">
<stop stop-color="#E19D37"/>
<stop offset="0.494792" stop-color="#EEA230"/>
<stop offset="1" stop-color="#DB9224"/>
</linearGradient>
<linearGradient id="paint37_linear_345_2129" x1="270.058" y1="155.48" x2="268.349" y2="159.807" gradientUnits="userSpaceOnUse">
<stop stop-color="#E19D37"/>
<stop offset="0.494792" stop-color="#EEA230"/>
<stop offset="1" stop-color="#DB9224"/>
</linearGradient>
<linearGradient id="paint38_linear_345_2129" x1="275.901" y1="146.16" x2="274.88" y2="150.532" gradientUnits="userSpaceOnUse">
<stop stop-color="#E19D37"/>
<stop offset="0.494792" stop-color="#EEA230"/>
<stop offset="1" stop-color="#DB9224"/>
</linearGradient>
<linearGradient id="paint39_linear_345_2129" x1="261.444" y1="159.676" x2="260.423" y2="164.048" gradientUnits="userSpaceOnUse">
<stop stop-color="#E19D37"/>
<stop offset="0.494792" stop-color="#EEA230"/>
<stop offset="1" stop-color="#DB9224"/>
</linearGradient>
<linearGradient id="paint40_linear_345_2129" x1="261.742" y1="166.926" x2="260.721" y2="171.298" gradientUnits="userSpaceOnUse">
<stop stop-color="#E19D37"/>
<stop offset="0.494792" stop-color="#EEA230"/>
<stop offset="1" stop-color="#DB9224"/>
</linearGradient>
<linearGradient id="paint41_linear_345_2129" x1="247.278" y1="163.32" x2="245.785" y2="109.145" gradientUnits="userSpaceOnUse">
<stop stop-color="white"/>
<stop offset="0.105858" stop-color="white"/>
<stop offset="0.21696" stop-color="white" stop-opacity="0.961194"/>
<stop offset="1" stop-color="white" stop-opacity="0"/>
</linearGradient>
</defs>
</svg>
