<svg width="335" height="99" viewBox="0 0 335 99" fill="none" xmlns="http://www.w3.org/2000/svg">
<rect x="93.0093" y="5.44873" width="238" height="88" transform="rotate(-0.106699 93.0093 5.44873)" fill="#FC1D1D"/>
<path d="M159.925 29.0541L159.93 31.7304L152.772 31.7437L152.781 36.6744L161.152 36.6588L161.157 39.3219L149.319 39.3439L149.286 22.0734L161.099 22.0514L161.104 24.7145L152.759 24.7301L152.767 29.0675L159.925 29.0541ZM165.128 26.4736L167.305 34.5248L167.532 35.7109L167.597 35.7107L167.833 34.5238L169.927 26.4647L173.552 26.4579L169.213 39.3069L165.903 39.313L161.503 26.4804L165.128 26.4736ZM182.434 31.3325C182.433 30.5767 182.256 29.9881 181.903 29.5669C181.56 29.1369 181.058 28.9225 180.399 28.9237C179.74 28.9249 179.222 29.1632 178.845 29.6385C178.468 30.1138 178.236 30.7647 178.15 31.591L178.19 31.6568L182.435 31.6489L182.434 31.3325ZM180.696 39.5755C178.85 39.579 177.368 38.9972 176.25 37.8304C175.14 36.6635 174.584 35.1484 174.58 33.2851L174.579 32.8105C174.577 31.5361 174.808 30.4019 175.272 29.4079C175.744 28.4138 176.42 27.6391 177.298 27.0838C178.184 26.5196 179.208 26.2365 180.368 26.2343C182.091 26.2311 183.432 26.7472 184.392 27.7825C185.352 28.809 185.833 30.2232 185.837 32.0249L185.84 33.9102L178.181 33.9244L178.154 34.0036C178.217 34.8736 178.504 35.5762 179.015 36.1114C179.526 36.6378 180.177 36.9002 180.968 36.8987C181.759 36.8973 182.405 36.8258 182.905 36.6842C183.406 36.5338 183.977 36.2823 184.618 35.9295L185.558 38.0635L185.558 38.0767C185.005 38.5348 184.307 38.9008 183.464 39.1749C182.629 39.4401 181.707 39.5736 180.696 39.5755ZM179.856 20.1576L182.208 23.3041L179.387 23.3094L176.164 20.2304L176.191 20.1644L179.856 20.1576ZM195.213 26.1803C196.54 26.1778 197.56 26.5934 198.273 27.427C198.987 28.2607 199.345 29.53 199.348 31.2351L199.363 39.2507L195.883 39.2572L195.868 31.2416C195.866 30.3978 195.694 29.7917 195.35 29.4232C195.016 29.0547 194.488 28.8711 193.767 28.8724C192.853 28.8742 192.133 29.2314 191.607 29.9443L191.625 39.2651L188.157 39.2716L188.133 26.4308L191.377 26.4379L191.538 28.2833C192.423 26.8842 193.648 26.1832 195.213 26.1803ZM209.368 31.2824C209.367 30.5265 209.19 29.938 208.837 29.5167C208.494 29.0867 207.992 28.8723 207.333 28.8736C206.674 28.8748 206.156 29.113 205.779 29.5884C205.402 30.0637 205.17 30.7145 205.084 31.5408L205.124 31.6067L209.369 31.5988L209.368 31.2824ZM207.63 39.5254C205.784 39.5288 204.302 38.9471 203.184 37.7802C202.074 36.6133 201.518 35.0983 201.514 33.235L201.513 32.7604C201.511 31.486 201.742 30.3517 202.206 29.3577C202.679 28.3637 203.354 27.589 204.232 27.0336C205.118 26.4695 206.142 26.1863 207.302 26.1842C209.025 26.1809 210.366 26.697 211.326 27.7323C212.286 28.7589 212.767 30.173 212.771 31.9748L212.774 33.86L205.115 33.8743L205.088 33.9534C205.151 34.8234 205.438 35.526 205.949 36.0612C206.46 36.5876 207.111 36.8501 207.902 36.8486C208.693 36.8471 209.339 36.7756 209.839 36.634C210.34 36.4837 210.911 36.2321 211.552 35.8794L212.492 38.0134L212.492 38.0266C211.939 38.4846 211.241 38.8507 210.398 39.1247C209.563 39.3899 208.641 39.5235 207.63 39.5254ZM225.661 30.0523L225.688 30.7642L225.704 39.2017L222.25 39.2081L222.236 31.4298C222.234 30.4981 222.079 29.8305 221.77 29.4267C221.462 29.023 220.983 28.8218 220.332 28.823C219.418 28.8247 218.72 29.1688 218.238 29.8552L218.255 39.2155L214.801 39.222L214.777 26.3812L218.007 26.3752L218.156 28.0756C219.006 26.782 220.257 26.1337 221.909 26.1306C223.562 26.1275 224.688 26.8593 225.288 28.326C226.121 26.8566 227.376 26.1204 229.055 26.1173C230.356 26.1149 231.363 26.5568 232.076 27.4432C232.79 28.3296 233.148 29.6517 233.152 31.4095L233.166 39.1878L229.699 39.1942L229.684 31.4159C229.682 30.4667 229.527 29.7946 229.219 29.3997C228.92 29.0047 228.445 28.8079 227.794 28.8091C226.819 28.8109 226.107 29.2253 225.661 30.0523ZM243.276 31.2192C243.275 30.4634 243.098 29.8748 242.746 29.4536C242.402 29.0236 241.901 28.8092 241.241 28.8104C240.582 28.8116 240.064 29.0499 239.687 29.5252C239.31 30.0005 239.078 30.6514 238.992 31.4777L239.032 31.5435L243.277 31.5356L243.276 31.2192ZM241.538 39.4622C239.692 39.4657 238.21 38.8839 237.092 37.7171C235.982 36.5502 235.426 35.0351 235.422 33.1718L235.422 32.6972C235.419 31.4228 235.65 30.2886 236.114 29.2946C236.587 28.3005 237.262 27.5258 238.14 26.9705C239.027 26.4063 240.05 26.1232 241.21 26.121C242.933 26.1178 244.274 26.6339 245.234 27.6692C246.194 28.6957 246.676 30.1099 246.679 31.9116L246.682 33.7969L239.023 33.8111L238.996 33.8903C239.06 34.7603 239.347 35.4629 239.857 35.9981C240.368 36.5244 241.019 36.7869 241.81 36.7854C242.601 36.784 243.247 36.7124 243.748 36.5709C244.248 36.4205 244.819 36.169 245.46 35.8162L246.4 37.9502L246.4 37.9634C245.847 38.4215 245.149 38.7875 244.306 39.0616C243.471 39.3268 242.549 39.4603 241.538 39.4622ZM255.699 26.0677C257.026 26.0652 258.046 26.4808 258.76 27.3144C259.473 28.148 259.831 29.4174 259.835 31.1225L259.85 39.1381L256.369 39.1446L256.354 31.1289C256.353 30.2852 256.18 29.6791 255.837 29.3106C255.502 28.9421 254.974 28.7585 254.254 28.7598C253.34 28.7615 252.619 29.1188 252.093 29.8317L252.111 39.1525L248.644 39.1589L248.62 26.3181L251.863 26.3253L252.024 28.1707C252.91 26.7716 254.134 26.0706 255.699 26.0677ZM263.037 23.18L266.504 23.1735L266.51 26.3112L268.672 26.3072L268.676 28.7461L266.514 28.7502L266.526 35.2892C266.528 36.2121 266.911 36.6728 267.676 36.6713C267.949 36.6708 268.256 36.6263 268.599 36.5378L268.893 39.0421C268.164 39.2808 267.466 39.4007 266.798 39.402C264.311 39.4066 263.064 38.0422 263.059 35.3088L263.047 28.7566L261.175 28.7601L261.17 26.3211L263.042 26.3177L263.037 23.18ZM169.63 72.21L169.63 72.2495C170.263 72.2483 170.746 72.1244 171.079 71.8777C171.422 71.6221 171.592 71.2834 171.592 70.8616C171.591 70.4397 171.397 70.0973 171.01 69.8343C170.631 69.5626 169.958 69.3177 168.991 69.0998C167.426 68.7863 166.269 68.327 165.521 67.722C164.773 67.1169 164.398 66.2739 164.396 65.1928C164.394 64.103 164.858 63.1793 165.788 62.4217C166.727 61.6641 167.988 61.2838 169.57 61.2808C171.161 61.2779 172.44 61.6578 173.408 62.4207C174.385 63.1747 174.853 64.145 174.811 65.3316L174.785 65.3976L171.436 65.4038C171.435 64.8765 171.268 64.4549 170.933 64.1392C170.599 63.8234 170.137 63.666 169.548 63.6671C168.968 63.6682 168.515 63.8053 168.191 64.0783C167.866 64.3426 167.704 64.6857 167.705 65.1076C167.706 65.5294 167.882 65.8631 168.234 66.1085C168.586 66.3452 169.259 66.5549 170.252 66.7376C171.87 67.0598 173.053 67.5278 173.801 68.1416C174.558 68.7555 174.938 69.6205 174.94 70.7367C174.942 71.8441 174.447 72.7635 173.455 73.4948C172.472 74.2174 171.159 74.5802 169.516 74.5832C167.872 74.5863 166.54 74.1713 165.519 73.3382C164.506 72.4964 164.025 71.4953 164.076 70.335L164.089 70.2559L167.266 70.25C167.304 71.5595 168.092 72.2128 169.63 72.21ZM183.755 75.0709C182.41 75.0734 181.368 74.5875 180.628 73.6133L180.639 79.77L177.185 79.7765L177.152 62.005L180.276 61.9992L180.477 63.5149C181.266 62.3445 182.35 61.758 183.73 61.7555C185.303 61.7525 186.53 62.3611 187.412 63.5811C188.302 64.8011 188.748 66.4439 188.752 68.5093L188.74 68.7598C188.743 70.6846 188.302 72.2191 187.417 73.3634C186.54 74.4988 185.319 75.0679 183.755 75.0709ZM185.285 68.7662L185.285 68.5158C185.283 67.2501 185.074 66.2574 184.66 65.5374C184.245 64.8087 183.634 64.4451 182.825 64.4466C181.797 64.4485 181.064 64.863 180.626 65.69L180.636 71.3062C181.068 72.0524 181.812 72.4246 182.866 72.4226C183.684 72.4211 184.29 72.1036 184.684 71.47C185.087 70.8277 185.288 69.9264 185.285 68.7662ZM198.24 66.3031C198.239 65.5473 198.062 64.9588 197.71 64.5375C197.366 64.1075 196.865 63.8931 196.206 63.8943C195.546 63.8956 195.028 64.1338 194.651 64.6091C194.274 65.0845 194.043 65.7353 193.956 66.5616L193.996 66.6275L198.241 66.6196L198.24 66.3031ZM196.502 74.5461C194.657 74.5496 193.175 73.9679 192.056 72.801C190.947 71.6341 190.39 70.119 190.387 68.2558L190.386 67.7812C190.383 66.5067 190.614 65.3725 191.078 64.3785C191.551 63.3844 192.226 62.6098 193.104 62.0544C193.991 61.4903 195.014 61.2071 196.174 61.2049C197.897 61.2017 199.238 61.7178 200.198 62.7531C201.158 63.7796 201.64 65.1938 201.643 66.9955L201.647 68.8808L193.987 68.8951L193.961 68.9742C194.024 69.8442 194.311 70.5468 194.822 71.082C195.332 71.6084 195.983 71.8708 196.774 71.8694C197.565 71.8679 198.211 71.7964 198.712 71.6548C199.212 71.5045 199.783 71.2529 200.424 70.9002L201.364 73.0342L201.364 73.0473C200.811 73.5054 200.113 73.8715 199.27 74.1455C198.436 74.4107 197.513 74.5443 196.502 74.5461ZM194.652 58.0964L196.979 54.4139L200.723 54.4069L197.434 58.0913L194.652 58.0964ZM206.891 67.6845L206.892 68.0536C206.897 70.5937 207.734 71.8621 209.404 71.859C210.028 71.8579 210.524 71.6768 210.893 71.3157C211.261 70.9547 211.445 70.4753 211.444 69.8777L214.595 69.8718L214.621 69.9377C214.659 71.2384 214.177 72.3291 213.177 73.2099C212.177 74.0819 210.921 74.5193 209.409 74.5221C207.528 74.5256 206.059 73.9395 205.002 72.7637C203.954 71.5791 203.428 70.0113 203.425 68.0601L203.424 67.7041C203.421 65.753 203.941 64.1832 204.984 62.9947C206.037 61.7974 207.503 61.197 209.384 61.1935C210.975 61.1906 212.25 61.6408 213.21 62.5443C214.178 63.439 214.646 64.6246 214.614 66.1013L214.601 66.1672L211.437 66.1731C211.436 65.4963 211.25 64.943 210.88 64.513C210.51 64.0742 210.013 63.8554 209.389 63.8566C207.719 63.8597 206.887 65.1357 206.891 67.6845ZM220.221 61.3711L220.245 74.2119L216.778 74.2183L216.754 61.3775L220.221 61.3711ZM220.211 55.7022L220.216 58.2993L216.748 58.3058L216.744 55.7086L220.211 55.7022ZM226.627 74.4769C225.291 74.4793 224.257 74.1385 223.527 73.4543C222.796 72.7701 222.429 71.8084 222.427 70.5691C222.425 69.3211 222.906 68.3578 223.872 67.6792C224.837 66.9919 226.252 66.6465 228.115 66.643L230.04 66.6394L230.038 65.6243C230.037 64.9915 229.873 64.5084 229.548 64.175C229.222 63.8416 228.76 63.6755 228.162 63.6766C227.573 63.6777 227.125 63.8148 226.818 64.0878C226.511 64.3608 226.358 64.7391 226.359 65.2225L223.01 65.2155L223.01 65.1496C222.947 64.0335 223.415 63.0878 224.416 62.3125C225.425 61.5372 226.721 61.1481 228.303 61.1451C229.893 61.1421 231.16 61.5353 232.102 62.3246C233.044 63.1138 233.516 64.216 233.518 65.631L233.528 70.944C233.531 72.0953 233.722 73.1848 234.101 74.2125L230.634 74.2189C230.352 73.569 230.179 72.9278 230.116 72.2951C229.275 73.7468 228.112 74.4741 226.627 74.4769ZM225.855 70.4968L225.868 70.4968C225.869 70.9275 226.01 71.2744 226.292 71.5375C226.582 71.7919 226.996 71.9186 227.532 71.9176C228.077 71.9165 228.586 71.7706 229.06 71.4796C229.534 71.1799 229.859 70.8234 230.034 70.41L230.03 68.5906L228.106 68.5942C227.385 68.5956 226.827 68.7768 226.432 69.1379C226.046 69.4901 225.854 69.9431 225.855 70.4968ZM240.377 74.4513C238.989 74.4538 237.92 74.0164 237.171 73.1389C236.431 72.2613 236.06 70.9217 236.056 69.1199L236.042 61.368L239.483 61.3616L239.497 69.1399C239.499 70.0627 239.654 70.7304 239.962 71.1429C240.271 71.5555 240.746 71.7611 241.387 71.7599C242.468 71.7579 243.263 71.4049 243.772 70.7008L243.754 61.3536L247.221 61.3472L247.245 74.188L244.292 74.1935L243.986 72.3483C243.162 73.7473 241.959 74.4483 240.377 74.4513ZM252.732 61.3105L254.665 65.3939L254.744 65.3937L256.7 61.3032L260.616 61.2959L256.765 67.6575L260.772 74.1364L256.869 74.1437L254.752 69.8893L252.664 74.1515L248.748 74.1588L252.731 67.6651L248.843 61.3178L252.732 61.3105Z" fill="white"/>
<path d="M309.07 80.3965C307.776 79.6175 307.779 77.7394 309.077 76.9652L331.575 63.5418C332.91 62.7456 334.603 63.7091 334.6 65.2631L334.55 92.1929C334.548 93.7469 332.851 94.7041 331.519 93.9029L309.07 80.3965Z" fill="#EEF8F9"/>
<path d="M309.025 51.3965C307.73 50.6175 307.734 48.7394 309.031 47.9652L331.53 34.5418C332.865 33.7456 334.558 34.7091 334.555 36.2631L334.505 63.1929C334.502 64.7469 332.806 65.7041 331.474 64.9029L309.025 51.3965Z" fill="#EEF8F9"/>
<path d="M308.969 21.3965C307.675 20.6175 307.678 18.7394 308.976 17.9652L331.474 4.54184C332.809 3.74562 334.502 4.70905 334.499 6.26307L334.449 33.1929C334.446 34.7469 332.75 35.7041 331.418 34.9029L308.969 21.3965Z" fill="#EEF8F9"/>
</svg>
