<svg width="30" height="42" viewBox="0 0 30 42" fill="none" xmlns="http://www.w3.org/2000/svg">
<path d="M14.7422 33.3242V34.5078C14.332 34.9883 13.9922 35.4434 13.7227 35.873C13.4531 36.3027 13.2305 36.75 13.0547 37.2148C12.8828 37.6797 12.75 38.1387 12.6562 38.5918C12.5625 39.041 12.4805 39.584 12.4102 40.2207L12.3398 41H10.7988L10.875 40.2207C11.1055 37.9863 11.9004 36.082 13.2598 34.5078H9.31641V33.3242H14.7422ZM19.5059 38.457H19.5117C19.5117 38.0273 19.4141 37.6816 19.2188 37.4199C19.0273 37.1582 18.7695 37.0273 18.4453 37.0273C17.8828 37.0273 17.4844 37.1973 17.25 37.5371V38.0469C17.25 38.6523 17.3574 39.1191 17.5723 39.4473C17.7871 39.7754 18.082 39.9395 18.457 39.9395C18.7695 39.9395 19.0215 39.7988 19.2129 39.5176C19.4082 39.2324 19.5059 38.8789 19.5059 38.457ZM15.7207 36.5117H15.709C15.709 35.5156 15.9941 34.7188 16.5645 34.1211C17.1387 33.5234 17.8828 33.2246 18.7969 33.2246C19.3203 33.2246 19.832 33.332 20.332 33.5469L20.0566 34.6719C19.584 34.5117 19.166 34.4316 18.8027 34.4316C18.3301 34.4316 17.9551 34.6074 17.6777 34.959C17.4004 35.3105 17.2715 35.793 17.291 36.4062L17.3086 36.4355C17.6719 36.0527 18.1895 35.8613 18.8613 35.8613C19.5371 35.8613 20.0703 36.1016 20.4609 36.582C20.8555 37.0586 21.0527 37.6855 21.0527 38.4629C21.0527 39.2402 20.8125 39.8789 20.332 40.3789C19.8516 40.875 19.2129 41.123 18.416 41.123C17.623 41.123 16.9746 40.8457 16.4707 40.291C15.9707 39.7363 15.7207 38.9766 15.7207 38.0117V36.5117Z" fill="white"/>
<path d="M9.375 5C5.57804 5 2.5 8.07806 2.5 11.875C2.5 18.75 10.625 25 15 26.4539C19.375 25 27.5 18.75 27.5 11.875C27.5 8.07806 24.4219 5 20.625 5C18.2998 5 16.2442 6.15431 15 7.92113C13.7558 6.15431 11.7002 5 9.375 5Z" stroke="white" stroke-width="2.5" stroke-linecap="round" stroke-linejoin="round"/>
</svg>
