<svg width="30" height="42" viewBox="0 0 30 42" fill="none" xmlns="http://www.w3.org/2000/svg">
<path d="M10.002 41H8.46094V34.6836H6.90234V33.5938L10.002 33.3242V41ZM16.5059 38.457H16.5117C16.5117 38.0273 16.4141 37.6816 16.2188 37.4199C16.0273 37.1582 15.7695 37.0273 15.4453 37.0273C14.8828 37.0273 14.4844 37.1973 14.25 37.5371V38.0469C14.25 38.6523 14.3574 39.1191 14.5723 39.4473C14.7871 39.7754 15.082 39.9395 15.457 39.9395C15.7695 39.9395 16.0215 39.7988 16.2129 39.5176C16.4082 39.2324 16.5059 38.8789 16.5059 38.457ZM12.7207 36.5117H12.709C12.709 35.5156 12.9941 34.7188 13.5645 34.1211C14.1387 33.5234 14.8828 33.2246 15.7969 33.2246C16.3203 33.2246 16.832 33.332 17.332 33.5469L17.0566 34.6719C16.584 34.5117 16.166 34.4316 15.8027 34.4316C15.3301 34.4316 14.9551 34.6074 14.6777 34.959C14.4004 35.3105 14.2715 35.793 14.291 36.4062L14.3086 36.4355C14.6719 36.0527 15.1895 35.8613 15.8613 35.8613C16.5371 35.8613 17.0703 36.1016 17.4609 36.582C17.8555 37.0586 18.0527 37.6855 18.0527 38.4629C18.0527 39.2402 17.8125 39.8789 17.332 40.3789C16.8516 40.875 16.2129 41.123 15.416 41.123C14.623 41.123 13.9746 40.8457 13.4707 40.291C12.9707 39.7363 12.7207 38.9766 12.7207 38.0117V36.5117ZM24.1406 33.3242V34.5078C23.7305 34.9883 23.3906 35.4434 23.1211 35.873C22.8516 36.3027 22.6289 36.75 22.4531 37.2148C22.2812 37.6797 22.1484 38.1387 22.0547 38.5918C21.9609 39.041 21.8789 39.584 21.8086 40.2207L21.7383 41H20.1973L20.2734 40.2207C20.5039 37.9863 21.2988 36.082 22.6582 34.5078H18.7148V33.3242H24.1406Z" fill="white"/>
<path d="M9.375 5C5.57804 5 2.5 8.07806 2.5 11.875C2.5 18.75 10.625 25 15 26.4539C19.375 25 27.5 18.75 27.5 11.875C27.5 8.07806 24.4219 5 20.625 5C18.2998 5 16.2442 6.15431 15 7.92113C13.7558 6.15431 11.7002 5 9.375 5Z" stroke="white" stroke-width="2.5" stroke-linecap="round" stroke-linejoin="round"/>
</svg>
