<svg width="30" height="42" viewBox="0 0 30 42" fill="none" xmlns="http://www.w3.org/2000/svg">
<path d="M10.002 41H8.46094V34.6836H6.90234V33.5938L10.002 33.3242V41ZM15.1465 36.5117C15.8652 36.5117 16.2246 36.1504 16.2246 35.4277C16.2246 35.1113 16.1348 34.8613 15.9551 34.6777C15.7793 34.4941 15.5352 34.4023 15.2227 34.4023C14.9102 34.4023 14.6562 34.4883 14.4609 34.6602C14.2695 34.8281 14.1738 35.0488 14.1738 35.3223H12.6797L12.668 35.2871C12.6484 34.6895 12.875 34.1953 13.3477 33.8047C13.8242 33.4141 14.4453 33.2188 15.2109 33.2188C15.9766 33.2188 16.5918 33.4102 17.0566 33.793C17.5254 34.1719 17.7598 34.7109 17.7598 35.4102C17.7598 35.75 17.6523 36.0703 17.4375 36.3711C17.2266 36.668 16.9375 36.9004 16.5703 37.0684C16.9922 37.2168 17.3145 37.4473 17.5371 37.7598C17.7637 38.0684 17.877 38.4336 17.877 38.8555C17.877 39.5508 17.625 40.1016 17.1211 40.5078C16.6172 40.9141 15.959 41.1172 15.1465 41.1172C14.6621 41.1172 14.2246 41.0352 13.834 40.8711C13.4473 40.7031 13.1367 40.4531 12.9023 40.1211C12.6719 39.7852 12.5605 39.3945 12.5684 38.9492L12.5801 38.9199H14.0742C14.0742 39.2168 14.1777 39.4609 14.3848 39.6523C14.5957 39.8438 14.8711 39.9395 15.2109 39.9395C15.5547 39.9395 15.8281 39.8438 16.0312 39.6523C16.2383 39.457 16.3418 39.1875 16.3418 38.8438C16.3418 38.0625 15.9414 37.6719 15.1406 37.6719H14.2793L14.2852 36.5117H15.1465ZM21.3457 36.5117C22.0645 36.5117 22.4238 36.1504 22.4238 35.4277C22.4238 35.1113 22.334 34.8613 22.1543 34.6777C21.9785 34.4941 21.7344 34.4023 21.4219 34.4023C21.1094 34.4023 20.8555 34.4883 20.6602 34.6602C20.4688 34.8281 20.373 35.0488 20.373 35.3223H18.8789L18.8672 35.2871C18.8477 34.6895 19.0742 34.1953 19.5469 33.8047C20.0234 33.4141 20.6445 33.2188 21.4102 33.2188C22.1758 33.2188 22.791 33.4102 23.2559 33.793C23.7246 34.1719 23.959 34.7109 23.959 35.4102C23.959 35.75 23.8516 36.0703 23.6367 36.3711C23.4258 36.668 23.1367 36.9004 22.7695 37.0684C23.1914 37.2168 23.5137 37.4473 23.7363 37.7598C23.9629 38.0684 24.0762 38.4336 24.0762 38.8555C24.0762 39.5508 23.8242 40.1016 23.3203 40.5078C22.8164 40.9141 22.1582 41.1172 21.3457 41.1172C20.8613 41.1172 20.4238 41.0352 20.0332 40.8711C19.6465 40.7031 19.3359 40.4531 19.1016 40.1211C18.8711 39.7852 18.7598 39.3945 18.7676 38.9492L18.7793 38.9199H20.2734C20.2734 39.2168 20.377 39.4609 20.584 39.6523C20.7949 39.8438 21.0703 39.9395 21.4102 39.9395C21.7539 39.9395 22.0273 39.8438 22.2305 39.6523C22.4375 39.457 22.541 39.1875 22.541 38.8438C22.541 38.0625 22.1406 37.6719 21.3398 37.6719H20.4785L20.4844 36.5117H21.3457Z" fill="white"/>
<path d="M9.375 5C5.57804 5 2.5 8.07806 2.5 11.875C2.5 18.75 10.625 25 15 26.4539C19.375 25 27.5 18.75 27.5 11.875C27.5 8.07806 24.4219 5 20.625 5C18.2998 5 16.2442 6.15431 15 7.92113C13.7558 6.15431 11.7002 5 9.375 5Z" stroke="white" stroke-width="2.5" stroke-linecap="round" stroke-linejoin="round"/>
</svg>
