<svg width="30" height="42" viewBox="0 0 30 42" fill="none" xmlns="http://www.w3.org/2000/svg">
<path d="M10.002 41H8.46094V34.6836H6.90234V33.5938L10.002 33.3242V41ZM16.3594 38.1699V36.1719C16.3594 34.9961 16.0039 34.4082 15.293 34.4082C14.9375 34.4082 14.6719 34.5508 14.4961 34.8359C14.3203 35.1211 14.2324 35.5664 14.2324 36.1719V38.1699C14.2324 38.7832 14.3203 39.2324 14.4961 39.5176C14.6758 39.7988 14.9434 39.9395 15.2988 39.9395C15.6543 39.9395 15.9199 39.7969 16.0957 39.5117C16.2715 39.2266 16.3594 38.7793 16.3594 38.1699ZM17.8945 36.3301V38.0234C17.8945 39.0273 17.666 39.7949 17.209 40.3262C16.752 40.8574 16.1152 41.123 15.2988 41.123C14.4863 41.123 13.8496 40.8574 13.3887 40.3262C12.9316 39.7949 12.7031 39.0273 12.7031 38.0234V36.3301C12.7031 35.3262 12.9316 34.5586 13.3887 34.0273C13.8457 33.4922 14.4805 33.2246 15.293 33.2246C16.1055 33.2246 16.7422 33.4922 17.2031 34.0273C17.6641 34.5625 17.8945 35.3301 17.8945 36.3301ZM22.7051 38.457H22.7109C22.7109 38.0273 22.6133 37.6816 22.418 37.4199C22.2266 37.1582 21.9688 37.0273 21.6445 37.0273C21.082 37.0273 20.6836 37.1973 20.4492 37.5371V38.0469C20.4492 38.6523 20.5566 39.1191 20.7715 39.4473C20.9863 39.7754 21.2812 39.9395 21.6562 39.9395C21.9688 39.9395 22.2207 39.7988 22.4121 39.5176C22.6074 39.2324 22.7051 38.8789 22.7051 38.457ZM18.9199 36.5117H18.9082C18.9082 35.5156 19.1934 34.7188 19.7637 34.1211C20.3379 33.5234 21.082 33.2246 21.9961 33.2246C22.5195 33.2246 23.0312 33.332 23.5312 33.5469L23.2559 34.6719C22.7832 34.5117 22.3652 34.4316 22.002 34.4316C21.5293 34.4316 21.1543 34.6074 20.877 34.959C20.5996 35.3105 20.4707 35.793 20.4902 36.4062L20.5078 36.4355C20.8711 36.0527 21.3887 35.8613 22.0605 35.8613C22.7363 35.8613 23.2695 36.1016 23.6602 36.582C24.0547 37.0586 24.252 37.6855 24.252 38.4629C24.252 39.2402 24.0117 39.8789 23.5312 40.3789C23.0508 40.875 22.4121 41.123 21.6152 41.123C20.8223 41.123 20.1738 40.8457 19.6699 40.291C19.1699 39.7363 18.9199 38.9766 18.9199 38.0117V36.5117Z" fill="white"/>
<path d="M9.375 5C5.57804 5 2.5 8.07806 2.5 11.875C2.5 18.75 10.625 25 15 26.4539C19.375 25 27.5 18.75 27.5 11.875C27.5 8.07806 24.4219 5 20.625 5C18.2998 5 16.2442 6.15431 15 7.92113C13.7558 6.15431 11.7002 5 9.375 5Z" stroke="white" stroke-width="2.5" stroke-linecap="round" stroke-linejoin="round"/>
</svg>
