<svg width="30" height="42" viewBox="0 0 30 42" fill="none" xmlns="http://www.w3.org/2000/svg">
<path d="M10.002 41H8.46094V34.6836H6.90234V33.5938L10.002 33.3242V41ZM12.7148 41.0059V39.998L15.1992 37.3379C15.5547 36.9238 15.8086 36.5762 15.9609 36.2949C16.1133 36.0137 16.1895 35.75 16.1895 35.5039C16.1895 35.1719 16.1016 34.9062 15.9258 34.707C15.75 34.5039 15.4941 34.4023 15.1582 34.4023C14.8262 34.4023 14.5664 34.5195 14.3789 34.7539C14.1953 34.9883 14.1035 35.3125 14.1035 35.7266H12.6035L12.5918 35.6973C12.5762 34.9863 12.8066 34.3965 13.2832 33.9277C13.7637 33.4551 14.4004 33.2188 15.1934 33.2188C15.9863 33.2188 16.6074 33.4219 17.0566 33.8281C17.5098 34.2344 17.7363 34.7852 17.7363 35.4805C17.7363 35.9219 17.6211 36.3301 17.3906 36.7051C17.1602 37.0801 16.7266 37.6113 16.0898 38.2988L14.7246 39.793L14.7363 39.8164H17.9648L17.959 41.0059H12.7148ZM21.3457 36.5117C22.0645 36.5117 22.4238 36.1504 22.4238 35.4277C22.4238 35.1113 22.334 34.8613 22.1543 34.6777C21.9785 34.4941 21.7344 34.4023 21.4219 34.4023C21.1094 34.4023 20.8555 34.4883 20.6602 34.6602C20.4688 34.8281 20.373 35.0488 20.373 35.3223H18.8789L18.8672 35.2871C18.8477 34.6895 19.0742 34.1953 19.5469 33.8047C20.0234 33.4141 20.6445 33.2188 21.4102 33.2188C22.1758 33.2188 22.791 33.4102 23.2559 33.793C23.7246 34.1719 23.959 34.7109 23.959 35.4102C23.959 35.75 23.8516 36.0703 23.6367 36.3711C23.4258 36.668 23.1367 36.9004 22.7695 37.0684C23.1914 37.2168 23.5137 37.4473 23.7363 37.7598C23.9629 38.0684 24.0762 38.4336 24.0762 38.8555C24.0762 39.5508 23.8242 40.1016 23.3203 40.5078C22.8164 40.9141 22.1582 41.1172 21.3457 41.1172C20.8613 41.1172 20.4238 41.0352 20.0332 40.8711C19.6465 40.7031 19.3359 40.4531 19.1016 40.1211C18.8711 39.7852 18.7598 39.3945 18.7676 38.9492L18.7793 38.9199H20.2734C20.2734 39.2168 20.377 39.4609 20.584 39.6523C20.7949 39.8438 21.0703 39.9395 21.4102 39.9395C21.7539 39.9395 22.0273 39.8438 22.2305 39.6523C22.4375 39.457 22.541 39.1875 22.541 38.8438C22.541 38.0625 22.1406 37.6719 21.3398 37.6719H20.4785L20.4844 36.5117H21.3457Z" fill="white"/>
<path d="M9.375 5C5.57804 5 2.5 8.07806 2.5 11.875C2.5 18.75 10.625 25 15 26.4539C19.375 25 27.5 18.75 27.5 11.875C27.5 8.07806 24.4219 5 20.625 5C18.2998 5 16.2442 6.15431 15 7.92113C13.7558 6.15431 11.7002 5 9.375 5Z" stroke="white" stroke-width="2.5" stroke-linecap="round" stroke-linejoin="round"/>
</svg>
