<svg width="30" height="41" viewBox="0 0 30 41" fill="none" xmlns="http://www.w3.org/2000/svg">
<path d="M10.002 41H8.46094V34.6836H6.90234V33.5938L10.002 33.3242V41ZM16.2012 41H14.6602V34.6836H13.1016V33.5938L16.2012 33.3242V41ZM18.9141 41.0059V39.998L21.3984 37.3379C21.7539 36.9238 22.0078 36.5762 22.1602 36.2949C22.3125 36.0137 22.3887 35.75 22.3887 35.5039C22.3887 35.1719 22.3008 34.9062 22.125 34.707C21.9492 34.5039 21.6934 34.4023 21.3574 34.4023C21.0254 34.4023 20.7656 34.5195 20.5781 34.7539C20.3945 34.9883 20.3027 35.3125 20.3027 35.7266H18.8027L18.791 35.6973C18.7754 34.9863 19.0059 34.3965 19.4824 33.9277C19.9629 33.4551 20.5996 33.2188 21.3926 33.2188C22.1855 33.2188 22.8066 33.4219 23.2559 33.8281C23.709 34.2344 23.9355 34.7852 23.9355 35.4805C23.9355 35.9219 23.8203 36.3301 23.5898 36.7051C23.3594 37.0801 22.9258 37.6113 22.2891 38.2988L20.9238 39.793L20.9355 39.8164H24.1641L24.1582 41.0059H18.9141Z" fill="white"/>
<path d="M9.375 5C5.57804 5 2.5 8.07806 2.5 11.875C2.5 18.75 10.625 25 15 26.4539C19.375 25 27.5 18.75 27.5 11.875C27.5 8.07806 24.4219 5 20.625 5C18.2998 5 16.2442 6.15431 15 7.92113C13.7558 6.15431 11.7002 5 9.375 5Z" stroke="white" stroke-width="2.5" stroke-linecap="round" stroke-linejoin="round"/>
</svg>
