<svg width="30" height="42" viewBox="0 0 30 42" fill="none" xmlns="http://www.w3.org/2000/svg">
<path d="M10.7422 39.9395C11.1602 39.9395 11.4922 39.7871 11.7383 39.4824C11.9883 39.1777 12.1133 38.75 12.1133 38.1992V37.8242C11.7617 38.2656 11.3008 38.4863 10.7305 38.4863C10.0156 38.4863 9.45312 38.2559 9.04297 37.7949C8.63672 37.3301 8.43359 36.7051 8.43359 35.9199C8.43359 35.1309 8.67578 34.4844 9.16016 33.9805C9.64453 33.4766 10.2734 33.2246 11.0469 33.2246C11.8242 33.2246 12.4531 33.498 12.9336 34.0449C13.4141 34.5879 13.6543 35.3418 13.6543 36.3066V38.123C13.6543 39.0449 13.3848 39.7754 12.8457 40.3145C12.3105 40.8535 11.6094 41.123 10.7422 41.123C10.1641 41.123 9.62695 41.0156 9.13086 40.8008L9.30664 39.6875H9.3125C9.74219 39.8555 10.2188 39.9395 10.7422 39.9395ZM11.0469 34.4082C10.7227 34.4082 10.4609 34.5508 10.2617 34.8359C10.0664 35.1211 9.96875 35.4805 9.96875 35.9141C9.96875 36.3477 10.0586 36.6973 10.2383 36.9629C10.418 37.2246 10.668 37.3555 10.9883 37.3555C11.4844 37.3555 11.8594 37.1816 12.1133 36.834V36.1309C12.1133 35.5723 12.0156 35.1465 11.8203 34.8535C11.6289 34.5566 11.3711 34.4082 11.0469 34.4082ZM18.5059 38.457H18.5117C18.5117 38.0273 18.4141 37.6816 18.2188 37.4199C18.0273 37.1582 17.7695 37.0273 17.4453 37.0273C16.8828 37.0273 16.4844 37.1973 16.25 37.5371V38.0469C16.25 38.6523 16.3574 39.1191 16.5723 39.4473C16.7871 39.7754 17.082 39.9395 17.457 39.9395C17.7695 39.9395 18.0215 39.7988 18.2129 39.5176C18.4082 39.2324 18.5059 38.8789 18.5059 38.457ZM14.7207 36.5117H14.709C14.709 35.5156 14.9941 34.7188 15.5645 34.1211C16.1387 33.5234 16.8828 33.2246 17.7969 33.2246C18.3203 33.2246 18.832 33.332 19.332 33.5469L19.0566 34.6719C18.584 34.5117 18.166 34.4316 17.8027 34.4316C17.3301 34.4316 16.9551 34.6074 16.6777 34.959C16.4004 35.3105 16.2715 35.793 16.291 36.4062L16.3086 36.4355C16.6719 36.0527 17.1895 35.8613 17.8613 35.8613C18.5371 35.8613 19.0703 36.1016 19.4609 36.582C19.8555 37.0586 20.0527 37.6855 20.0527 38.4629C20.0527 39.2402 19.8125 39.8789 19.332 40.3789C18.8516 40.875 18.2129 41.123 17.416 41.123C16.623 41.123 15.9746 40.8457 15.4707 40.291C14.9707 39.7363 14.7207 38.9766 14.7207 38.0117V36.5117Z" fill="white"/>
<path d="M9.375 5C5.57804 5 2.5 8.07806 2.5 11.875C2.5 18.75 10.625 25 15 26.4539C19.375 25 27.5 18.75 27.5 11.875C27.5 8.07806 24.4219 5 20.625 5C18.2998 5 16.2442 6.15431 15 7.92113C13.7558 6.15431 11.7002 5 9.375 5Z" stroke="white" stroke-width="2.5" stroke-linecap="round" stroke-linejoin="round"/>
</svg>
