<svg width="45" height="45" viewBox="0 0 45 45" fill="none" xmlns="http://www.w3.org/2000/svg">
<path d="M17.8125 18.75C21.4369 18.75 24.375 15.8119 24.375 12.1875C24.375 8.56314 21.4369 5.625 17.8125 5.625C14.1881 5.625 11.25 8.56314 11.25 12.1875C11.25 15.8119 14.1881 18.75 17.8125 18.75Z" stroke="#333333" stroke-width="4" stroke-linecap="round" stroke-linejoin="round"/>
<path d="M30.5698 6.5625C32.4756 7.71084 33.7502 9.80034 33.7502 12.1875C33.7502 14.5747 32.4756 16.6642 30.5698 17.8125" stroke="#333333" stroke-width="4" stroke-linecap="round" stroke-linejoin="round"/>
<path d="M3.75 38.25V39.375H31.875V38.25C31.875 34.0496 31.875 31.9494 31.0576 30.3451C30.3385 28.9339 29.1911 27.7865 27.7799 27.0674C26.1756 26.25 24.0754 26.25 19.875 26.25H15.75C11.5496 26.25 9.44944 26.25 7.84508 27.0674C6.43386 27.7865 5.2865 28.9339 4.56745 30.3451C3.75 31.9494 3.75 34.0496 3.75 38.25Z" stroke="#333333" stroke-width="4" stroke-linecap="round" stroke-linejoin="round"/>
<path d="M41.2499 39.3751V38.2501C41.2499 34.0497 41.2499 31.9496 40.4325 30.3452C39.7134 28.934 38.566 27.7867 37.1548 27.0676" stroke="#333333" stroke-width="4" stroke-linecap="round" stroke-linejoin="round"/>
</svg>
